<svg xmlns="http://www.w3.org/2000/svg" xmlns:xlink="http://www.w3.org/1999/xlink" width="500" zoomAndPan="magnify" viewBox="0 0 375 374.999991" height="500" preserveAspectRatio="xMidYMid meet" version="1.0"><defs><g/><clipPath id="f09e73d061"><path d="M 81 70.582031 L 294 70.582031 L 294 304 L 81 304 Z M 81 70.582031 " clip-rule="nonzero"/></clipPath></defs><g clip-path="url(#f09e73d061)"><path fill="#ff914d" d="M 197.953125 107.546875 L 197.953125 145.261719 L 177.097656 145.261719 L 177.097656 107.5 C 180.433594 106.925781 183.882812 106.628906 187.402344 106.628906 C 191.007812 106.632812 194.535156 106.945312 197.953125 107.546875 M 220.554688 120.710938 C 220.027344 120.453125 219.496094 120.195312 218.964844 119.945312 C 217.703125 119.363281 216.425781 118.816406 215.128906 118.304688 L 215.128906 113.394531 C 216.996094 114.367188 218.804688 115.445312 220.554688 116.601562 Z M 139.355469 130.578125 C 136.039062 133.351562 132.976562 136.390625 130.214844 139.652344 C 124.691406 146.175781 120.242188 153.683594 117.183594 161.886719 L 117.015625 162.3125 C 116.066406 164.90625 115.257812 167.5625 114.589844 170.277344 L 105.617188 170.277344 L 99.832031 160.261719 L 116.179688 131.941406 C 118.53125 127.851562 117.121094 122.621094 113.027344 120.269531 C 108.9375 117.921875 103.707031 119.328125 101.355469 123.425781 L 82.828125 155.527344 C 81.074219 158.152344 80.847656 161.65625 82.539062 164.574219 L 92.945312 182.601562 C 94.335938 185.472656 97.277344 187.453125 100.683594 187.453125 L 129.621094 187.453125 C 129.691406 181.441406 130.664062 175.671875 132.402344 170.277344 C 132.628906 169.582031 132.859375 168.894531 133.113281 168.21875 L 133.25 167.816406 C 135.59375 161.550781 139.015625 155.773438 143.289062 150.726562 C 146.726562 146.667969 150.671875 143.101562 154.996094 140.167969 C 156.574219 139.09375 158.21875 138.097656 159.910156 137.175781 L 159.910156 153.851562 C 159.910156 158.59375 163.757812 162.4375 168.496094 162.4375 L 206.53125 162.4375 C 211.273438 162.4375 215.121094 158.59375 215.121094 153.851562 L 215.121094 137.195312 C 221.414062 140.617188 227.015625 145.171875 231.632812 150.585938 C 236.003906 155.710938 239.503906 161.636719 241.890625 168.113281 C 242.152344 168.824219 242.398438 169.546875 242.632812 170.277344 C 244.375 175.671875 245.347656 181.449219 245.414062 187.453125 L 274.351562 187.453125 C 277.753906 187.453125 280.695312 185.472656 282.085938 182.601562 L 292.496094 164.574219 C 294.1875 161.65625 293.960938 158.152344 292.207031 155.527344 L 273.675781 123.425781 C 271.328125 119.335938 266.09375 117.921875 262.003906 120.269531 C 257.910156 122.621094 256.5 127.851562 258.851562 131.941406 L 275.199219 160.261719 L 269.414062 170.277344 L 260.441406 170.277344 C 259.765625 167.527344 258.945312 164.832031 257.976562 162.207031 C 254.894531 153.832031 250.339844 146.140625 244.636719 139.449219 C 241.910156 136.25 238.917969 133.285156 235.695312 130.582031 L 235.695312 108.953125 L 232.675781 106.671875 C 227.339844 102.640625 221.4375 99.300781 215.109375 96.789062 L 215.109375 94.226562 L 221.667969 87.667969 L 229.15625 87.667969 C 233.898438 87.667969 237.742188 83.824219 237.742188 79.082031 C 237.765625 74.332031 233.921875 70.488281 229.179688 70.488281 L 218.136719 70.488281 C 215.9375 70.488281 213.746094 71.324219 212.066406 73 L 200.617188 84.449219 C 198.976562 86.015625 197.957031 88.222656 197.957031 90.667969 L 197.957031 92.214844 C 194.496094 91.722656 190.972656 91.46875 187.40625 91.46875 C 183.929688 91.46875 180.488281 91.710938 177.101562 92.183594 L 177.101562 90.664062 C 177.101562 88.21875 176.082031 86.007812 174.441406 84.441406 L 162.988281 73.003906 C 161.308594 71.324219 159.109375 70.488281 156.914062 70.488281 L 145.871094 70.488281 C 141.128906 70.488281 137.28125 74.332031 137.28125 79.074219 C 137.28125 83.816406 141.128906 87.660156 145.871094 87.660156 L 153.359375 87.660156 L 159.914062 94.21875 L 159.914062 96.699219 C 153.625 99.175781 147.742188 102.472656 142.40625 106.460938 L 139.351562 108.742188 L 139.351562 130.578125 Z M 222.546875 254.558594 L 227.300781 264.820312 L 218.625 292.339844 C 217.214844 296.859375 219.742188 301.667969 224.257812 303.074219 C 228.777344 304.480469 233.582031 301.957031 234.992188 297.4375 L 244.65625 266.78125 C 245.265625 264.824219 245.179688 262.644531 244.257812 260.644531 L 236.875 244.714844 C 238.160156 243.59375 239.410156 242.429688 240.613281 241.222656 C 248.398438 233.4375 254.484375 223.953125 258.257812 213.363281 L 269.449219 213.363281 L 275.21875 223.359375 L 258.859375 251.691406 C 256.507812 255.785156 257.917969 261.011719 262.011719 263.367188 C 266.105469 265.71875 271.332031 264.304688 273.683594 260.214844 L 292.464844 227.683594 L 292.503906 227.617188 C 293.960938 225.066406 294.070312 221.828125 292.503906 219.097656 L 282.179688 201.21875 C 280.828125 198.25 277.835938 196.1875 274.363281 196.1875 L 244.878906 196.1875 C 244.03125 202.265625 242.238281 208.042969 239.65625 213.363281 C 236.820312 219.21875 233.023438 224.527344 228.472656 229.078125 C 219.90625 237.640625 208.667969 243.53125 196.109375 245.398438 C 193.308594 245.816406 190.441406 246.03125 187.523438 246.03125 C 184.605469 246.03125 181.738281 245.816406 178.933594 245.398438 C 166.382812 243.53125 155.140625 237.640625 146.574219 229.078125 C 142.023438 224.527344 138.226562 219.21875 135.386719 213.363281 C 132.804688 208.042969 131.019531 202.265625 130.167969 196.1875 L 100.683594 196.1875 C 97.207031 196.1875 94.214844 198.25 92.863281 201.21875 L 82.542969 219.101562 C 80.976562 221.832031 81.082031 225.070312 82.554688 227.640625 L 82.582031 227.6875 L 101.363281 260.21875 C 103.71875 264.308594 108.945312 265.722656 113.039062 263.371094 C 117.128906 261.019531 118.542969 255.789062 116.1875 251.699219 L 99.828125 223.363281 L 105.597656 213.371094 L 116.789062 213.371094 C 120.5625 223.953125 126.644531 233.441406 134.433594 241.226562 C 135.371094 242.167969 136.339844 243.082031 137.328125 243.976562 L 129.597656 260.648438 C 128.671875 262.648438 128.589844 264.828125 129.195312 266.785156 L 138.859375 297.441406 C 140.269531 301.960938 145.074219 304.484375 149.59375 303.078125 C 154.109375 301.671875 156.636719 296.863281 155.230469 292.347656 L 146.550781 264.824219 L 151.542969 254.054688 C 162.226562 259.894531 174.480469 263.222656 187.515625 263.222656 C 200.175781 263.210938 212.089844 260.082031 222.546875 254.558594 Z M 178.933594 195.003906 L 178.933594 212.179688 L 196.109375 212.179688 L 196.109375 195.003906 Z M 196.109375 187.453125 L 196.109375 170.277344 L 178.933594 170.277344 L 178.933594 187.453125 Z M 163.640625 116.953125 L 159.917969 118.316406 C 158.085938 119.042969 156.285156 119.84375 154.519531 120.710938 L 154.519531 116.402344 C 156.257812 115.261719 158.0625 114.203125 159.917969 113.25 L 159.917969 118.316406 C 161.144531 117.832031 162.386719 117.375 163.640625 116.953125 Z M 163.640625 116.953125 " fill-opacity="1" fill-rule="evenodd"/></g><g fill="#ffffff" fill-opacity="1"><g transform="translate(122.648435, 343.124977)"><g><path d="M 1.734375 0 L 1.734375 -11.421875 L 6.0625 -11.421875 C 6.757812 -11.421875 7.351562 -11.304688 7.84375 -11.078125 C 8.332031 -10.859375 8.703125 -10.539062 8.953125 -10.125 C 9.203125 -9.71875 9.328125 -9.226562 9.328125 -8.65625 C 9.328125 -8.15625 9.191406 -7.703125 8.921875 -7.296875 C 8.648438 -6.898438 8.265625 -6.59375 7.765625 -6.375 L 7.765625 -6.203125 C 8.523438 -6.015625 9.101562 -5.671875 9.5 -5.171875 C 9.894531 -4.679688 10.09375 -4.0625 10.09375 -3.3125 C 10.09375 -2.25 9.78125 -1.429688 9.15625 -0.859375 C 8.53125 -0.285156 7.609375 0 6.390625 0 Z M 6 -6.625 C 6.625 -6.625 7.109375 -6.789062 7.453125 -7.125 C 7.804688 -7.457031 7.984375 -7.910156 7.984375 -8.484375 C 7.984375 -9.097656 7.816406 -9.554688 7.484375 -9.859375 C 7.148438 -10.160156 6.65625 -10.3125 6 -10.3125 L 3.078125 -10.3125 L 3.078125 -6.625 Z M 6.28125 -1.109375 C 7.90625 -1.109375 8.71875 -1.84375 8.71875 -3.3125 C 8.71875 -4.78125 7.90625 -5.515625 6.28125 -5.515625 L 3.078125 -5.515625 L 3.078125 -1.109375 Z M 6.28125 -1.109375 "/></g></g></g><g fill="#ffffff" fill-opacity="1"><g transform="translate(133.637944, 343.124977)"><g><path d="M 1.734375 3.65625 C 1.441406 3.65625 1.164062 3.628906 0.90625 3.578125 C 0.65625 3.535156 0.441406 3.46875 0.265625 3.375 L 0.5 2.375 L 0.640625 2.328125 C 0.765625 2.390625 0.921875 2.441406 1.109375 2.484375 C 1.296875 2.523438 1.488281 2.546875 1.6875 2.546875 C 2.03125 2.546875 2.316406 2.5 2.546875 2.40625 C 2.773438 2.3125 2.972656 2.15625 3.140625 1.9375 C 3.304688 1.726562 3.457031 1.429688 3.59375 1.046875 L 3.90625 0.203125 L 0.4375 -8.625 L 1.8125 -8.625 L 4.53125 -1.59375 L 4.671875 -1.59375 L 7.296875 -8.625 L 8.609375 -8.625 L 4.75 1.359375 C 4.53125 1.910156 4.285156 2.351562 4.015625 2.6875 C 3.742188 3.019531 3.421875 3.265625 3.046875 3.421875 C 2.679688 3.578125 2.242188 3.65625 1.734375 3.65625 Z M 1.734375 3.65625 "/></g></g></g><g fill="#ffffff" fill-opacity="1"><g transform="translate(142.721668, 343.124977)"><g/></g></g><g fill="#ffffff" fill-opacity="1"><g transform="translate(146.642585, 343.124977)"><g><path d="M 5 0.171875 C 4.28125 0.171875 3.632812 0.0703125 3.0625 -0.125 C 2.488281 -0.320312 2.007812 -0.578125 1.625 -0.890625 C 1.25 -1.210938 0.96875 -1.566406 0.78125 -1.953125 L 1.515625 -2.84375 L 1.71875 -2.84375 C 2.425781 -1.644531 3.519531 -1.046875 5 -1.046875 C 5.851562 -1.046875 6.488281 -1.222656 6.90625 -1.578125 C 7.332031 -1.941406 7.546875 -2.445312 7.546875 -3.09375 C 7.546875 -3.46875 7.472656 -3.785156 7.328125 -4.046875 C 7.191406 -4.304688 6.960938 -4.523438 6.640625 -4.703125 C 6.328125 -4.890625 5.898438 -5.050781 5.359375 -5.1875 L 4.015625 -5.515625 C 3.023438 -5.753906 2.289062 -6.132812 1.8125 -6.65625 C 1.34375 -7.1875 1.109375 -7.851562 1.109375 -8.65625 C 1.109375 -9.21875 1.253906 -9.722656 1.546875 -10.171875 C 1.835938 -10.617188 2.265625 -10.96875 2.828125 -11.21875 C 3.390625 -11.46875 4.0625 -11.59375 4.84375 -11.59375 C 5.707031 -11.59375 6.429688 -11.46875 7.015625 -11.21875 C 7.609375 -10.976562 8.082031 -10.617188 8.4375 -10.140625 L 7.78125 -9.25 L 7.59375 -9.25 C 7.257812 -9.65625 6.867188 -9.953125 6.421875 -10.140625 C 5.972656 -10.328125 5.445312 -10.421875 4.84375 -10.421875 C 4.050781 -10.421875 3.453125 -10.265625 3.046875 -9.953125 C 2.648438 -9.648438 2.453125 -9.226562 2.453125 -8.6875 C 2.453125 -8.164062 2.597656 -7.753906 2.890625 -7.453125 C 3.191406 -7.148438 3.691406 -6.914062 4.390625 -6.75 L 5.765625 -6.421875 C 6.867188 -6.160156 7.671875 -5.757812 8.171875 -5.21875 C 8.671875 -4.675781 8.921875 -3.988281 8.921875 -3.15625 C 8.921875 -2.507812 8.773438 -1.9375 8.484375 -1.4375 C 8.191406 -0.9375 7.75 -0.539062 7.15625 -0.25 C 6.570312 0.03125 5.851562 0.171875 5 0.171875 Z M 5 0.171875 "/></g></g></g><g fill="#ffffff" fill-opacity="1"><g transform="translate(156.429263, 343.124977)"><g><path d="M 3.5625 0.171875 C 2.707031 0.171875 2.039062 -0.0507812 1.5625 -0.5 C 1.09375 -0.945312 0.859375 -1.582031 0.859375 -2.40625 C 0.859375 -2.914062 0.960938 -3.34375 1.171875 -3.6875 C 1.378906 -4.039062 1.703125 -4.328125 2.140625 -4.546875 C 2.585938 -4.773438 3.171875 -4.945312 3.890625 -5.0625 C 4.515625 -5.164062 4.988281 -5.28125 5.3125 -5.40625 C 5.632812 -5.539062 5.851562 -5.6875 5.96875 -5.84375 C 6.082031 -6.007812 6.140625 -6.21875 6.140625 -6.46875 C 6.140625 -6.851562 6.003906 -7.148438 5.734375 -7.359375 C 5.460938 -7.566406 5.03125 -7.671875 4.4375 -7.671875 C 3.882812 -7.671875 3.40625 -7.5625 3 -7.34375 C 2.601562 -7.132812 2.238281 -6.816406 1.90625 -6.390625 L 1.75 -6.390625 L 1.125 -7.265625 C 1.488281 -7.734375 1.953125 -8.101562 2.515625 -8.375 C 3.078125 -8.644531 3.71875 -8.78125 4.4375 -8.78125 C 5.457031 -8.78125 6.207031 -8.554688 6.6875 -8.109375 C 7.164062 -7.671875 7.40625 -7.054688 7.40625 -6.265625 L 7.40625 -1.703125 C 7.40625 -1.222656 7.609375 -0.984375 8.015625 -0.984375 C 8.148438 -0.984375 8.28125 -1.003906 8.40625 -1.046875 L 8.515625 -1.015625 L 8.671875 -0.140625 C 8.578125 -0.078125 8.453125 -0.03125 8.296875 0 C 8.140625 0.0390625 7.984375 0.0625 7.828125 0.0625 C 7.347656 0.0625 6.988281 -0.0390625 6.75 -0.25 C 6.507812 -0.457031 6.351562 -0.765625 6.28125 -1.171875 L 6.125 -1.1875 C 5.875 -0.738281 5.539062 -0.398438 5.125 -0.171875 C 4.707031 0.0546875 4.1875 0.171875 3.5625 0.171875 Z M 3.84375 -0.859375 C 4.320312 -0.859375 4.734375 -0.96875 5.078125 -1.1875 C 5.429688 -1.40625 5.703125 -1.710938 5.890625 -2.109375 C 6.078125 -2.515625 6.171875 -2.984375 6.171875 -3.515625 L 6.171875 -4.609375 L 6.03125 -4.640625 C 5.832031 -4.503906 5.59375 -4.390625 5.3125 -4.296875 C 5.039062 -4.203125 4.660156 -4.117188 4.171875 -4.046875 C 3.671875 -3.984375 3.269531 -3.878906 2.96875 -3.734375 C 2.675781 -3.597656 2.46875 -3.421875 2.34375 -3.203125 C 2.21875 -2.984375 2.15625 -2.71875 2.15625 -2.40625 C 2.15625 -1.894531 2.300781 -1.507812 2.59375 -1.25 C 2.894531 -0.988281 3.3125 -0.859375 3.84375 -0.859375 Z M 3.84375 -0.859375 "/></g></g></g><g fill="#ffffff" fill-opacity="1"><g transform="translate(165.341154, 343.124977)"><g><path d="M 4.28125 0 L 2.671875 0 L 0.5625 -8.625 L 1.8125 -8.625 L 3.453125 -1.484375 L 3.609375 -1.484375 L 5.625 -8.625 L 6.953125 -8.625 L 9.03125 -1.484375 L 9.1875 -1.484375 L 10.796875 -8.625 L 12.015625 -8.625 L 9.921875 0 L 8.3125 0 L 6.34375 -6.6875 L 6.171875 -6.6875 Z M 4.28125 0 "/></g></g></g><g fill="#ffffff" fill-opacity="1"><g transform="translate(177.900586, 343.124977)"><g><path d="M 1.734375 3.65625 C 1.441406 3.65625 1.164062 3.628906 0.90625 3.578125 C 0.65625 3.535156 0.441406 3.46875 0.265625 3.375 L 0.5 2.375 L 0.640625 2.328125 C 0.765625 2.390625 0.921875 2.441406 1.109375 2.484375 C 1.296875 2.523438 1.488281 2.546875 1.6875 2.546875 C 2.03125 2.546875 2.316406 2.5 2.546875 2.40625 C 2.773438 2.3125 2.972656 2.15625 3.140625 1.9375 C 3.304688 1.726562 3.457031 1.429688 3.59375 1.046875 L 3.90625 0.203125 L 0.4375 -8.625 L 1.8125 -8.625 L 4.53125 -1.59375 L 4.671875 -1.59375 L 7.296875 -8.625 L 8.609375 -8.625 L 4.75 1.359375 C 4.53125 1.910156 4.285156 2.351562 4.015625 2.6875 C 3.742188 3.019531 3.421875 3.265625 3.046875 3.421875 C 2.679688 3.578125 2.242188 3.65625 1.734375 3.65625 Z M 1.734375 3.65625 "/></g></g></g><g fill="#ffffff" fill-opacity="1"><g transform="translate(186.984311, 343.124977)"><g><path d="M 8.21875 -4.015625 L 2.296875 -4.015625 C 2.328125 -2.972656 2.578125 -2.207031 3.046875 -1.71875 C 3.515625 -1.226562 4.15625 -0.984375 4.96875 -0.984375 C 5.582031 -0.984375 6.078125 -1.09375 6.453125 -1.3125 C 6.828125 -1.53125 7.117188 -1.875 7.328125 -2.34375 L 7.5 -2.34375 L 8.328125 -1.84375 C 8.078125 -1.21875 7.675781 -0.722656 7.125 -0.359375 C 6.570312 -0.00390625 5.851562 0.171875 4.96875 0.171875 C 4.132812 0.171875 3.414062 0.00390625 2.8125 -0.328125 C 2.21875 -0.660156 1.757812 -1.160156 1.4375 -1.828125 C 1.113281 -2.492188 0.953125 -3.320312 0.953125 -4.3125 C 0.953125 -5.289062 1.117188 -6.113281 1.453125 -6.78125 C 1.796875 -7.457031 2.265625 -7.957031 2.859375 -8.28125 C 3.453125 -8.613281 4.128906 -8.78125 4.890625 -8.78125 C 5.992188 -8.78125 6.851562 -8.46875 7.46875 -7.84375 C 8.09375 -7.226562 8.40625 -6.304688 8.40625 -5.078125 C 8.40625 -4.597656 8.394531 -4.273438 8.375 -4.109375 Z M 7.15625 -5.078125 C 7.132812 -5.992188 6.929688 -6.660156 6.546875 -7.078125 C 6.160156 -7.492188 5.609375 -7.703125 4.890625 -7.703125 C 4.128906 -7.703125 3.535156 -7.492188 3.109375 -7.078125 C 2.679688 -6.660156 2.421875 -5.992188 2.328125 -5.078125 Z M 7.15625 -5.078125 "/></g></g></g><g fill="#ffffff" fill-opacity="1"><g transform="translate(196.169567, 343.124977)"><g><path d="M 1.5 0 L 1.5 -8.625 L 2.71875 -8.625 L 2.71875 -7.265625 L 2.875 -7.234375 C 3.28125 -8.210938 4.035156 -8.703125 5.140625 -8.703125 C 5.734375 -8.703125 6.175781 -8.59375 6.46875 -8.375 L 6.140625 -7.296875 L 5.984375 -7.265625 C 5.660156 -7.429688 5.304688 -7.515625 4.921875 -7.515625 C 4.234375 -7.515625 3.703125 -7.253906 3.328125 -6.734375 C 2.960938 -6.222656 2.78125 -5.390625 2.78125 -4.234375 L 2.78125 0 Z M 1.5 0 "/></g></g></g><g fill="#ffffff" fill-opacity="1"><g transform="translate(202.824192, 343.124977)"><g/></g></g><g fill="#ffffff" fill-opacity="1"><g transform="translate(206.745109, 343.124977)"><g><path d="M 5.421875 -11.421875 C 6.578125 -11.421875 7.570312 -11.210938 8.40625 -10.796875 C 9.238281 -10.390625 9.878906 -9.757812 10.328125 -8.90625 C 10.773438 -8.0625 11 -7 11 -5.71875 C 11 -4.4375 10.773438 -3.367188 10.328125 -2.515625 C 9.878906 -1.671875 9.238281 -1.039062 8.40625 -0.625 C 7.570312 -0.207031 6.578125 0 5.421875 0 L 1.734375 0 L 1.734375 -11.421875 Z M 5.296875 -1.140625 C 6.242188 -1.140625 7.03125 -1.285156 7.65625 -1.578125 C 8.28125 -1.878906 8.753906 -2.363281 9.078125 -3.03125 C 9.398438 -3.707031 9.5625 -4.601562 9.5625 -5.71875 C 9.5625 -6.832031 9.398438 -7.722656 9.078125 -8.390625 C 8.753906 -9.054688 8.28125 -9.535156 7.65625 -9.828125 C 7.03125 -10.128906 6.242188 -10.28125 5.296875 -10.28125 L 3.078125 -10.28125 L 3.078125 -1.140625 Z M 5.296875 -1.140625 "/></g></g></g><g fill="#ffffff" fill-opacity="1"><g transform="translate(218.882769, 343.124977)"><g><path d="M 2.140625 -10.28125 C 1.867188 -10.28125 1.648438 -10.363281 1.484375 -10.53125 C 1.316406 -10.707031 1.234375 -10.925781 1.234375 -11.1875 C 1.234375 -11.445312 1.316406 -11.660156 1.484375 -11.828125 C 1.648438 -11.992188 1.867188 -12.078125 2.140625 -12.078125 C 2.410156 -12.078125 2.628906 -11.992188 2.796875 -11.828125 C 2.972656 -11.660156 3.0625 -11.445312 3.0625 -11.1875 C 3.0625 -10.925781 2.972656 -10.707031 2.796875 -10.53125 C 2.628906 -10.363281 2.410156 -10.28125 2.140625 -10.28125 Z M 1.5 0 L 1.5 -8.625 L 2.78125 -8.625 L 2.78125 0 Z M 1.5 0 "/></g></g></g><g fill="#ffffff" fill-opacity="1"><g transform="translate(223.155169, 343.124977)"><g><path d="M 3.4375 0.171875 C 2.820312 0.171875 2.335938 0 1.984375 -0.34375 C 1.640625 -0.695312 1.46875 -1.21875 1.46875 -1.90625 L 1.46875 -12.078125 L 2.75 -12.078125 L 2.75 -2 C 2.75 -1.632812 2.816406 -1.375 2.953125 -1.21875 C 3.085938 -1.0625 3.300781 -0.984375 3.59375 -0.984375 C 3.769531 -0.984375 3.953125 -1.007812 4.140625 -1.0625 L 4.25 -1.03125 L 4.390625 -0.03125 C 4.296875 0.03125 4.160156 0.078125 3.984375 0.109375 C 3.816406 0.148438 3.632812 0.171875 3.4375 0.171875 Z M 3.4375 0.171875 "/></g></g></g><g fill="#ffffff" fill-opacity="1"><g transform="translate(227.841524, 343.124977)"><g><path d="M 3.4375 0.171875 C 2.820312 0.171875 2.335938 0 1.984375 -0.34375 C 1.640625 -0.695312 1.46875 -1.21875 1.46875 -1.90625 L 1.46875 -12.078125 L 2.75 -12.078125 L 2.75 -2 C 2.75 -1.632812 2.816406 -1.375 2.953125 -1.21875 C 3.085938 -1.0625 3.300781 -0.984375 3.59375 -0.984375 C 3.769531 -0.984375 3.953125 -1.007812 4.140625 -1.0625 L 4.25 -1.03125 L 4.390625 -0.03125 C 4.296875 0.03125 4.160156 0.078125 3.984375 0.109375 C 3.816406 0.148438 3.632812 0.171875 3.4375 0.171875 Z M 3.4375 0.171875 "/></g></g></g><g fill="#ffffff" fill-opacity="1"><g transform="translate(232.527879, 343.124977)"><g><path d="M 4.953125 0.171875 C 4.140625 0.171875 3.429688 0 2.828125 -0.34375 C 2.222656 -0.695312 1.757812 -1.207031 1.4375 -1.875 C 1.113281 -2.539062 0.953125 -3.351562 0.953125 -4.3125 C 0.953125 -5.257812 1.113281 -6.066406 1.4375 -6.734375 C 1.757812 -7.410156 2.222656 -7.921875 2.828125 -8.265625 C 3.429688 -8.609375 4.140625 -8.78125 4.953125 -8.78125 C 5.765625 -8.78125 6.46875 -8.609375 7.0625 -8.265625 C 7.664062 -7.921875 8.128906 -7.410156 8.453125 -6.734375 C 8.785156 -6.066406 8.953125 -5.257812 8.953125 -4.3125 C 8.953125 -3.351562 8.785156 -2.539062 8.453125 -1.875 C 8.128906 -1.207031 7.664062 -0.695312 7.0625 -0.34375 C 6.46875 0 5.765625 0.171875 4.953125 0.171875 Z M 4.953125 -0.984375 C 5.804688 -0.984375 6.460938 -1.253906 6.921875 -1.796875 C 7.378906 -2.335938 7.609375 -3.175781 7.609375 -4.3125 C 7.609375 -5.445312 7.378906 -6.285156 6.921875 -6.828125 C 6.460938 -7.367188 5.804688 -7.640625 4.953125 -7.640625 C 4.085938 -7.640625 3.425781 -7.367188 2.96875 -6.828125 C 2.507812 -6.285156 2.28125 -5.445312 2.28125 -4.3125 C 2.28125 -3.175781 2.507812 -2.335938 2.96875 -1.796875 C 3.425781 -1.253906 4.085938 -0.984375 4.953125 -0.984375 Z M 4.953125 -0.984375 "/></g></g></g><g fill="#ffffff" fill-opacity="1"><g transform="translate(242.416089, 343.124977)"><g><path d="M 1.5 0 L 1.5 -8.625 L 2.71875 -8.625 L 2.71875 -7.265625 L 2.875 -7.234375 C 3.164062 -7.734375 3.53125 -8.113281 3.96875 -8.375 C 4.414062 -8.644531 4.960938 -8.78125 5.609375 -8.78125 C 6.640625 -8.78125 7.390625 -8.515625 7.859375 -7.984375 C 8.328125 -7.460938 8.5625 -6.648438 8.5625 -5.546875 L 8.5625 0 L 7.28125 0 L 7.28125 -5.515625 C 7.28125 -6.035156 7.210938 -6.453125 7.078125 -6.765625 C 6.953125 -7.085938 6.75 -7.316406 6.46875 -7.453125 C 6.1875 -7.597656 5.820312 -7.671875 5.375 -7.671875 C 4.59375 -7.671875 3.960938 -7.414062 3.484375 -6.90625 C 3.015625 -6.394531 2.78125 -5.566406 2.78125 -4.421875 L 2.78125 0 Z M 1.5 0 "/></g></g></g></svg>